<?xml version="1.0" encoding="utf-8"?>
<!-- Generator: Adobe Illustrator 27.3.1, SVG Export Plug-In . SVG Version: 6.00 Build 0)  -->
<svg version="1.1" id="Layer_1" xmlns="http://www.w3.org/2000/svg" xmlns:xlink="http://www.w3.org/1999/xlink" x="0px" y="0px"
	 viewBox="0 0 514 93.4" style="enable-background:new 0 0 514 93.4;" xml:space="preserve">
<style type="text/css">
	.st0{fill:#7253A3;}
	.st1{fill:#FFFFFF;}
</style>
<g>
	<path class="st0" d="M85.5,82.9H71.2L36.7,47.2H19.4V37h44.4V21.6H14.5v56.2L4.6,67.6V11.4h69v35.8H51L85.5,82.9z"/>
	<path class="st1" d="M142.6,81.6H91.3v-44h51.3V45H98.6v11h43.9v7.3H98.6v11h43.9V81.6z"/>
	<path class="st1" d="M146.2,45v-7.3h47.7v44h-47.7v-33h6.8v25.6h34.1V45H146.2z"/>
	<path class="st1" d="M198,37.6h51.3v44H198L198,37.6L198,37.6z M205.3,45v29.3H242V45H205.3z"/>
	<g>
		<polygon class="st0" points="326.5,61.4 326.9,61.4 337,61.4 326.9,51.3 326.9,50.9 326.7,51.1 326.5,50.9 326.5,51.3 316.4,61.4 
					"/>
		<rect x="321.2" y="32.4" class="st0" width="10.5" height="10.5"/>
		<polygon class="st0" points="321.2,69.9 273.2,69.9 273.2,23.1 321.2,23.1 321.2,28.2 331.8,28.2 331.8,23.1 331.8,17.7 
			331.8,11.4 263.4,11.4 263.4,81.6 331.8,81.6 331.8,75.4 331.8,69.9 331.8,64.9 321.2,64.9 		"/>
	</g>
	<path class="st1" d="M344,37.6h51.3v44H344V37.6z M351.3,45v29.3h36.6V45H351.3z"/>
	<path class="st1" d="M400.8,45v-7.3h47.7v44h-47.7v-33h6.8v25.6h34V45H400.8z"/>
	<path class="st1" d="M505.1,81.6h-51.3v-44h51.3V45h-44v11h44v7.3h-44v11h44L505.1,81.6L505.1,81.6z"/>
</g>
</svg>
