<?xml version="1.0" encoding="utf-8"?>
<!-- Generator: Adobe Illustrator 27.3.1, SVG Export Plug-In . SVG Version: 6.00 Build 0)  -->
<svg version="1.1" id="Layer_1" xmlns="http://www.w3.org/2000/svg" xmlns:xlink="http://www.w3.org/1999/xlink" x="0px" y="0px"
	 viewBox="0 0 595.28 595.28" style="enable-background:new 0 0 595.28 595.28;" xml:space="preserve">
<style type="text/css">
	.st0{fill:#7253A3;}
	.st1{fill:#FFFFFF;}
</style>
<g>
	<path class="st0" d="M130.86,924.21h-14.3l-34.52-35.75H64.77v-10.22h44.38v-15.32H59.84v56.19l-9.86-10.22V852.7h69.04v35.75
		H96.34L130.86,924.21z"/>
	<path class="st1" d="M187.92,922.87h-51.27v-43.95h51.27v7.32h-43.95v10.99h43.95v7.32h-43.95v10.99h43.95V922.87z"/>
	<path class="st1" d="M191.58,886.25v-7.32h47.67v43.95h-47.67v-32.96h6.81v25.63h34.05v-29.3H191.58z"/>
	<path class="st1" d="M243.38,878.93h51.27v43.95h-51.27V878.93z M250.7,886.25v29.3h36.62v-29.3H250.7z"/>
	<g>
		<polygon class="st0" points="371.86,902.7 372.25,902.7 382.39,902.7 372.25,892.55 372.25,892.17 372.06,892.36 371.86,892.17 
			371.86,892.55 361.72,902.7 		"/>
		<rect x="366.6" y="873.66" class="st0" width="10.53" height="10.53"/>
		<polygon class="st0" points="366.6,911.18 318.54,911.18 318.54,864.4 366.6,864.4 366.6,869.49 377.13,869.49 377.13,864.4 
			377.13,858.96 377.13,852.7 308.77,852.7 308.77,922.87 377.13,922.87 377.13,916.69 377.13,911.18 377.13,906.16 366.6,906.16 		
			"/>
	</g>
	<path class="st1" d="M389.34,878.93h51.27v43.95h-51.27V878.93z M396.66,886.25v29.3h36.62v-29.3H396.66z"/>
	<path class="st1" d="M446.13,886.25v-7.32h47.67v43.95h-47.67v-32.96h6.81v25.63h34.05v-29.3H446.13z"/>
	<path class="st1" d="M550.47,922.87H499.2v-43.95h51.27v7.32h-43.95v10.99h43.95v7.32h-43.95v10.99h43.95V922.87z"/>
</g>
</svg>
