<svg width="24" height="27" viewBox="0 0 24 27" fill="none" xmlns="http://www.w3.org/2000/svg">
<path d="M9.875 0C9.28613 0 8.68408 0.206543 8.25781 0.632812C7.83154 1.05908 7.625 1.66113 7.625 2.25V3.375H0.875V5.625H2V23.625C2 25.4751 3.5249 27 5.375 27H18.875C20.7251 27 22.25 25.4751 22.25 23.625V5.625H23.375V3.375H16.625V2.25C16.625 1.66113 16.4185 1.05908 15.9922 0.632812C15.5659 0.206543 14.9639 0 14.375 0H9.875ZM9.875 2.25H14.375V3.375H9.875V2.25ZM4.25 5.625H20V23.625C20 24.249 19.499 24.75 18.875 24.75H5.375C4.75098 24.75 4.25 24.249 4.25 23.625V5.625ZM6.5 9V21.375H8.75V9H6.5ZM11 9V21.375H13.25V9H11ZM15.5 9V21.375H17.75V9H15.5Z" fill="white"/>
</svg>
